<svg xmlns="http://www.w3.org/2000/svg" xmlns:xlink="http://www.w3.org/1999/xlink" version="1.1" width="256" height="256" viewBox="0 0 256 256" xml:space="preserve">

<defs>
</defs>
<g style="stroke: none; stroke-width: 0; stroke-dasharray: none; stroke-linecap: butt; stroke-linejoin: miter; stroke-miterlimit: 10; fill: none; fill-rule: nonzero; opacity: 1;" transform="translate(1.4065934065934016 1.4065934065934016) scale(2.81 2.81)" >
	<circle cx="45" cy="45" r="45" style="stroke: none; stroke-width: 1; stroke-dasharray: none; stroke-linecap: butt; stroke-linejoin: miter; stroke-miterlimit: 10; fill: rgb(255,202,40); fill-rule: nonzero; opacity: 1;" transform="  matrix(1 0 0 1 0 0) "/>
	<path d="M 82.583 20.258 C 84.779 25.758 86 31.752 86 38.035 C 86 64.525 64.525 86 38.035 86 c -6.283 0 -12.277 -1.221 -17.777 -3.417 C 27.358 87.266 35.858 90 45 90 c 24.853 0 45 -20.147 45 -45 C 90 35.858 87.266 27.358 82.583 20.258 z" style="stroke: none; stroke-width: 1; stroke-dasharray: none; stroke-linecap: butt; stroke-linejoin: miter; stroke-miterlimit: 10; fill: rgb(231,182,34); fill-rule: nonzero; opacity: 1;" transform=" matrix(1 0 0 1 0 0) " stroke-linecap="round" />
	<path d="M 68.79 50.494 c 0 13.139 -10.651 23.79 -23.79 23.79 s -23.79 -10.651 -23.79 -23.79 H 68.79 z" style="stroke: none; stroke-width: 1; stroke-dasharray: none; stroke-linecap: butt; stroke-linejoin: miter; stroke-miterlimit: 10; fill: rgb(255,255,255); fill-rule: nonzero; opacity: 1;" transform=" matrix(1 0 0 1 0 0) " stroke-linecap="round" />
	<path d="M 69.835 41.032 H 54.855 c -0.847 0 -1.602 -0.533 -1.885 -1.332 s -0.033 -1.688 0.625 -2.222 l 13.506 -10.957 c 0.856 -0.697 2.118 -0.564 2.813 0.293 c 0.696 0.858 0.565 2.118 -0.293 2.813 l -9.126 7.403 h 9.34 c 1.104 0 2 0.896 2 2 S 70.939 41.032 69.835 41.032 z" style="stroke: none; stroke-width: 1; stroke-dasharray: none; stroke-linecap: butt; stroke-linejoin: miter; stroke-miterlimit: 10; fill: rgb(96,67,35); fill-rule: nonzero; opacity: 1;" transform=" matrix(1 0 0 1 0 0) " stroke-linecap="round" />
	<path d="M 35.145 41.032 H 20.165 c -1.104 0 -2 -0.896 -2 -2 s 0.896 -2 2 -2 h 9.34 l -9.126 -7.403 c -0.857 -0.696 -0.989 -1.956 -0.293 -2.813 c 0.696 -0.858 1.956 -0.989 2.813 -0.293 l 13.505 10.957 c 0.657 0.534 0.908 1.423 0.625 2.222 C 36.747 40.499 35.991 41.032 35.145 41.032 z" style="stroke: none; stroke-width: 1; stroke-dasharray: none; stroke-linecap: butt; stroke-linejoin: miter; stroke-miterlimit: 10; fill: rgb(96,67,35); fill-rule: nonzero; opacity: 1;" transform=" matrix(1 0 0 1 0 0) " stroke-linecap="round" />
	<path d="M 45 76.284 c -14.221 0 -25.79 -11.569 -25.79 -25.79 c 0 -1.104 0.896 -2 2 -2 h 47.58 c 1.104 0 2 0.896 2 2 C 70.79 64.715 59.221 76.284 45 76.284 z M 23.301 52.494 C 24.313 63.576 33.659 72.284 45 72.284 c 11.341 0 20.687 -8.708 21.699 -19.79 H 23.301 z" style="stroke: none; stroke-width: 1; stroke-dasharray: none; stroke-linecap: butt; stroke-linejoin: miter; stroke-miterlimit: 10; fill: rgb(96,67,35); fill-rule: nonzero; opacity: 1;" transform=" matrix(1 0 0 1 0 0) " stroke-linecap="round" />
</g>
</svg>